<?xml version="1.0" encoding="UTF-8" standalone="no" ?>
<svg width="1050px" height="750px" viewBox="0 0 1050 750" version="1.1" xmlns="http://www.w3.org/2000/svg" xmlns:xlink="http://www.w3.org/1999/xlink" preserveAspectRatio="xMidYMid">
 <defs>
  <linearGradient id="linearGradient8248" y2="-33.43" gradientUnits="userSpaceOnUse" x2="792.9" y1="271.39" x1="162.51">
   <stop stop-color="#5cb85c" offset="0"/>
   <stop stop-color="#007d00" stop-opacity="0" offset="1"/>
  </linearGradient>
 </defs>
   <g>
    <path d="m0 2.3622v300l150-300h150l-150 300h150l150-300h150l-150 300h150l150-300c-4.11 308.37.33 300.37 0 300l-750-1.46" fill-rule="evenodd" stroke-width="1px" fill="url(#linearGradient8248)"/>
    <path fill="#87de87" d="m435.73 150.36v4.0702h-33.4q.51875 5.0279 3.6313 7.5419 3.1125 2.514 8.6991 2.514 4.5092 0 9.2179-1.3168 4.7486-1.3567 9.7366-4.0702v11.014q-5.0678 1.9154-10.136 2.8731-5.0678.9976-10.136.9976-12.131 0-18.875-6.1452-6.7039-6.1852-6.7039-17.318 0-10.934 6.5842-17.199 6.6241-6.265 18.196-6.265 10.535 0 16.84 6.3448 6.3448 6.3448 6.3448 16.959zm-14.685-4.7486q0-4.0702-2.3942-6.5443-2.3543-2.514-6.1851-2.514-4.15 0-6.7438 2.3543-2.5938 2.3144-3.2322 6.7039h18.555zm-43.248.88388-.0884 26.331h-13.305c12.898-25.619 1.8386-3.6535 13.393-26.331zm-140.77-16.69c-2.1947 4.5274-2.1714 4.3199-4.6285 8.6991-1.942-.63847-4.9361-1.2229-7.0377-1.2229-3.9904 0-7.1029 1.1705-9.3376 3.5116-2.208 2.3144-3.312 5.56-3.312 9.7366s1.104 7.4355 3.312 9.7765c1.1173 1.1572 2.7193 2.4671 4.2755 3.0457-2.9514 5.7281-.88586 1.5327-5.0329 10.067-3.1524-1.0309-8.3408-3.5494-10.615-5.6111-4.5491-4.15-6.8236-9.9095-6.8236-17.278 0-7.369 2.2745-13.115 6.8236-17.239 4.5491-4.15 10.854-6.225 18.915-6.225 2.341 0 4.6422.21282 6.9034.63847 2.2878.39904 4.2972 1.2761 6.5584 2.1008zm-63.941-19.06h14.286v62.091h-14.286v-62.091zm-10.934 39.625v4.0702h-33.4q.51876 5.0279 3.6313 7.5419t8.6991 2.514q4.5092 0 9.2179-1.3168 4.7486-1.3567 9.7366-4.0702v11.014q-5.0678 1.9154-10.136 2.8731-5.0678.9976-10.136.9976-12.131 0-18.875-6.1452-6.7039-6.1852-6.7039-17.318 0-10.934 6.5842-17.199 6.6241-6.265 18.196-6.265 10.535 0 16.84 6.3448 6.3448 6.3448 6.3448 16.959zm-14.685-4.7486q0-4.0702-2.3942-6.5443-2.3543-2.514-6.1852-2.514-4.15 0-6.7438 2.3543-2.5938 2.3144-3.2322 6.7039h18.555zm-66.007-7.1061c1.5638 6.7083 3.309 13.43 4.9539 20.115l7.5419-30.487h13.887l-11.772 44.693h-15.603l-3.7709-15.363-1.6203-6.5767c3.1091-6.1334 3.0978-6.1504 6.3831-12.381z"/>
   </g>
</svg>
