<?xml version="1.0" encoding="UTF-8" standalone="no" ?>
<svg width="1050px" height="750px" viewBox="0 0 1050 750" version="1.1" xmlns="http://www.w3.org/2000/svg" xmlns:xlink="http://www.w3.org/1999/xlink" preserveAspectRatio="xMidYMid">
 <defs>
  <linearGradient id="linearGradient8248" y2="-33.43" gradientUnits="userSpaceOnUse" x2="792.9" y1="271.39" x1="162.51">
   <stop stop-color="#5cb85c" offset="0"/>
   <stop stop-color="#007d00" stop-opacity="0" offset="1"/>
  </linearGradient>
 </defs>
   <g>
    <path d="m0 2.3622v300l150-300h150l-150 300h150l150-300h150l-150 300h150l150-300c-4.1063 308.37.33029.37158 0 0h-750" fill-rule="evenodd"  stroke-width="1px" fill="url(#linearGradient8248)"/>
    <path d="m347.31 135.56c1.809-2.7667 3.9505-4.8683 6.4246-6.3049 2.5007-1.4632 5.2408-2.1947 8.2203-2.1947 5.1343 0 9.0449 1.5829 11.732 4.7486 2.6869 3.1657 4.0303 9.268 4.0303 15.307 0 0-.29312.21582-6.625 12.982s-5.875 12.607-5.875 12.607l-1.8655.125v-23.304c.0266-.34583.0399-.70497.0399-1.0774.0266-.37244.0399-.9045.0399-1.5962 0-3.1657-.46555-5.4536-1.3966-6.8635-.93109-1.4366-2.4342-2.1548-4.5092-2.1548-2.7135 0-4.8151 1.1173-6.3049 3.352-1.4632 2.2346-2.2213 5.4669-2.2745 9.6967v21.947h-14.366v-23.304c0-4.9481-.42564-8.1272-1.2769-9.5371-.85129-1.4366-2.3676-2.1548-4.5491-2.1548-2.7401 0-4.855 1.1306-6.3448 3.3918-1.4898 2.2346-2.2346 5.4403-2.2346 9.6169v21.987h-14.366v-44.693h14.366v6.5443c1.7558-2.5273 3.7643-4.4294 6.0255-5.7063 2.2878-1.2769 4.8018-1.9154 7.5419-1.9154 3.0859 0 5.8127.74488 8.1804 2.2346 2.3676 1.4898 4.1633 3.5781 5.3871 6.265zm-76.337 1.7159q-4.7486 0-7.2626 3.4318-2.4741 3.3918-2.4741 9.8164t2.4741 9.8563q2.514 3.3918 7.2626 3.3918 4.6688 0 7.1428-3.3918 2.4741-3.4318 2.4741-9.8563 0-6.4246-2.4741-9.8164-2.474-3.4318-7.1428-3.4318zm0-10.215q11.532 0 17.997 6.225 6.5044 6.225 6.5044 17.239t-6.5044 17.239q-6.4645 6.225-17.997 6.225-11.572 0-18.116-6.225-6.5044-6.225-6.5044-17.239t6.5044-17.239q6.5443-6.225 18.116-6.225zm-51.625 35.656c1.5563.57861 4.0195 1.0554 6.0147 1.0554 2.2346 0 4.3496-.33253 6.3448-.9976 2.0218-.66507 3.884-1.6494 5.5866-2.9529v11.692c-2.2346.82469-4.5092 1.4366-6.8236 1.8356-2.2878.42565-4.589.63847-6.9034.63847-4.0303 0-6.2608-.0735-9.2116-.98379 0 0-.2886.047 4.9926-10.287zm16.747-33.58c2.2878.39904-1.0626-.4266 1.1986.39809v11.652c-1.942-1.3301-3.8973-2.3144-5.8659-2.9529 0 0 .0136.12986 4.6673-9.0972zm-198.04-.99855h13.887l7.502 30.806 7.5419-30.806h11.931l3.1245 11.135c-6.7143 13.669.0043.003-6.7368 13.694l-2.3734-10.863-7.502 30.726h-15.603z" fill="#87de87"/>
   </g>
</svg>
