<?xml version="1.0" encoding="UTF-8" standalone="no"?>
<svg width="800px" height="650px" viewBox="0 0 800 650" version="1.1" xmlns="http://www.w3.org/2000/svg" xmlns:xlink="http://www.w3.org/1999/xlink" preserveAspectRatio="xMidYMid">
      <g stroke="#fff" stroke-width="3" fill="none">
       <path data-start="0" data-duration="50" d="m325.92 724.31c1.377-8.6211 2.3965-17.299 3.0548-26.005 2.6276-34.749-.51565-69.732-6.3296-104.09-3.3923-20.048-7.6992-39.994-9.2189-60.269-2.9262-39.041 4.5405-77.997 9.9449-116.77 4.9452-35.481 8.6182-72.516 27.265-103.1 7.4848-12.278 17.139-23.058 26.021-34.366 8.8823-11.308 17.156-23.46 21.226-37.251 3.2475-11.004 3.6908-22.616 5.6712-33.917.9902-5.6507 2.377-11.262 4.6485-16.53s5.4574-10.199 9.7074-14.053c4.9896-4.5239 11.401-7.456 18.087-8.271 6.6856-.81507 13.614.49062 19.544 3.6833"/>
       <path data-start="15" data-duration="50" d="m315.29 546.56c-5.6643-33.249 5.9176-68.963 30.016-92.56 24.099-23.597 60.049-34.424 93.171-28.061 18.588 3.5708 36.262 12.169 55.178 12.832 19.281.67585 37.823-6.9702 55.178-15.398 12.721-6.1778 25.287-12.912 36.281-21.807 10.994-8.8954 20.415-20.117 25.433-33.338 3.697-9.7414 4.8964-20.58 2.3637-30.686-2.3895-9.5352-8.1148-18.2-15.949-24.137"/>
       <path data-start="15" data-duration="50" d="m313.04 485.26c-6.5857-39.275-23.302-76.808-48.09-107.98-12.673-15.934-27.782-30.475-46.262-39.019-7.8292-3.6195-16.136-6.1049-24.512-8.1641-14.301-3.516-28.922-5.8334-42.913-10.431-13.991-4.5979-27.597-11.753-36.935-23.141-7.07-8.6226-11.394-19.463-12.2-30.584-.8059-11.121 1.9103-22.472 7.6634-32.024" />
      </g>
     <g stroke="#fff" fill="none"  stroke-width="2" >
      <path data-start="55" data-duration="80" d="m472.84 437.16c26.545 2.9852 52.05 14.605 71.723 32.676 19.672 18.071 33.411 42.5 38.633 68.697 2.4469 12.273 3.0431 25.129-.22189 37.21-3.265 12.082-10.707 23.342-21.593 29.516-8.1419 4.618-17.967 6.1878-27.142 4.3367-9.1755-1.8511-17.623-7.1074-23.338-14.521-5.7146-7.4135-8.6472-16.921-8.1016-26.266.54559-9.3444 4.5648-18.446 11.103-25.144" />
      <path data-start="55" data-duration="80" d="m192.7 330.3c-19.399-8.1189-42.629-6.4019-60.623 4.4808s-30.303 30.659-32.121 51.609c-1.707 19.67 5.5524 39.558 17.896 54.968s29.46 26.558 47.83 33.794c6.1869 2.4373 12.613 4.4729 19.247 4.9376 6.6334.46464 13.535-.74352 19.107-4.3719 2.7862-1.8142 5.2046-4.2176 6.9195-7.066s2.7124-6.145 2.7282-9.4698c.0159-3.3248-.96827-6.6674-2.8942-9.3776s-4.8017-4.7582-8.0273-5.5646c-3.9915-.99779-8.4295-.007-11.618 2.5926-3.1887 2.6-5.052 6.7479-4.8781 10.859"/>
      <path data-start="55" data-duration="80" d="m363.11 294.02c6.8656-11.917 18.077-39.907 17.096-53.626 1.977-25.76-7.1982-45.416-38.003-57.165-64.18-20.837-117.58 54.392-86.948 99.674 11.096 13.524 26.763 21.742 43.089 18.325 22.171-5.7487 28.337-31.237 16.039-45.739" />
      <path data-start="55" data-duration="80" d="m527.4 431.29c13.362-5.5729 24.725-15.81 31.658-28.519 6.9326-12.71 9.3872-27.806 6.8385-42.057-1.7854-9.9831-6.0056-19.571-12.475-27.382-6.4691-7.8102-15.209-13.79-24.949-16.614-9.7404-2.824-20.452-2.4159-29.805 1.5028-9.3538 3.9187-17.241 11.39-21.312 20.679-3.4724 7.9221-4.122 17.048-1.807 25.382 2.315 8.3342 7.5783 15.817 14.639 20.814" />
      <path data-start="55" data-duration="80" d="m401.74 215.5c3.1902-6.9603 8.5625-12.901 15.168-16.773 6.6053-3.8721 14.414-5.6576 22.045-5.0412 8.9462.72256 17.717 4.8835 23.342 11.877 2.8127 3.4968 4.8186 7.6538 5.7031 12.053.88447 4.3996.63529 9.0355-.81472 13.282-1.6322 4.7804-4.7902 9.0268-8.8988 11.965-4.1086 2.9387-9.1476 4.5553-14.199 4.5553-5.0513 0-10.09-1.6166-14.199-4.5553-4.1086-2.9387-7.2666-7.1851-8.8988-11.965" />
      <path data-start="55" data-duration="80" d="m322.09 485.18c3.7921-5.6213 9.5111-9.9164 15.967-11.991 6.4555-2.075 13.606-1.9165 19.963.44252 5.1632 1.9159 9.8 5.2712 13.145 9.646 3.3452 4.3748 5.3744 9.7626 5.6342 15.264.25984 5.5011-1.2686 11.089-4.3845 15.63s-7.8157 7.9942-13.112 9.505c-6.9963 1.9958-14.908.4489-20.637-4.035-5.7294-4.4839-9.1323-11.792-8.8764-19.063"/>
      <path data-start="55" data-duration="80" d="m395.23 426.16c10.065-1.3204 20.513.43657 29.592 4.9763 9.0795 4.5397 16.754 11.844 21.736 20.688 5.2451 9.3099 7.4557 20.641 4.4343 30.891-1.5107 5.1249-4.3114 9.8933-8.208 13.549-3.8965 3.6556-8.8975 6.166-14.191 6.8888-4.4435.60675-9.0526-.0516-13.149-1.878-4.096-1.8264-7.6659-4.8152-10.184-8.5262-2.5182-3.711-3.9767-8.1326-4.1607-12.613-.18403-4.4809.90701-9.0072 3.1124-12.912" />
      <path data-start="55" data-duration="80" d="m290.17 419.01c-1.2984-3.4207-3.6927-6.4158-6.7436-8.4356-3.0508-2.0198-6.7432-3.0543-10.399-2.9137-3.6562.14062-7.2581 1.4557-10.145 3.7038-2.8867 2.2482-5.0439 5.4183-6.0757 8.9287-1.0559 3.5923-.91181 7.577.67524 10.968 1.587 3.3912 4.6684 6.1144 8.3072 6.9967 3.2146.7794 6.7573.078 9.4324-1.8675s4.4339-5.0998 4.6829-8.3981" />
      <path data-start="55" data-duration="80" d="m326 395.36c3.5782-34.967 21.162-68.302 48-91 10.77-9.1088 23.327-16.688 37.247-18.971 6.9599-1.1414 14.183-.91691 20.96 1.0387 6.7763 1.9556 13.088 5.679 17.793 10.933 6.2265 6.9513 9.3942 16.306 9.8639 25.626.46964 9.3204-1.6083 18.628-4.8639 27.374-3.4283 9.2101-8.4146 18.211-16.313 24.059-3.9492 2.9238-8.5845 4.9851-13.457 5.6177-4.8728.63256-9.979-.21157-14.23-2.6767-5.3781-3.119-9.165-8.8389-9.9362-15.008-.77113-6.169 1.4913-12.645 5.9362-16.992" />
      <path data-start="55" data-duration="80" d="m249 361.36c-8.7925-8.1192-20.135-13.436-32-15-6.3629-.83875-13.03-.58277-18.913 1.983-2.9414 1.2829-5.6501 3.1391-7.7871 5.533s-3.6889 5.3338-4.3001 8.484c-.60495 3.1181-.2788 6.3887.77041 9.3866s2.8062 5.7265 4.978 8.0442c4.3436 4.6353 10.224 7.5623 16.252 9.5692 3.4584 1.1516 7.0482 2.0377 10.693 2.0535 3.645.0158 7.3708-.89323 10.307-3.0535 2.8638-2.1072 4.8496-5.3716 5.4041-8.8836.55452-3.512-.32891-7.2294-2.4041-10.116" />
      <path data-start="55" data-duration="80" d="m119 303.36c-5.0738-9.7924-7.1653-21.105-5.9279-32.064 1.2373-10.959 5.7985-21.521 12.928-29.936 8.0203-9.4661 19.176-16.11 31.179-19.249 12.003-3.1394 24.806-2.8429 36.821.2492 11.525 2.9658 22.482 8.5582 31.024 16.844 8.5419 8.2853 14.556 19.341 15.976 31.156.84475 7.0268.049 14.315-2.8071 20.791-2.8561 6.4755-7.842 12.086-14.193 15.209-4.3959 2.1619-9.383 3.1062-14.265 2.7011-4.882-.40516-9.6452-2.1586-13.625-5.0156-3.9794-2.857-7.1638-6.8095-9.1087-11.306-1.9448-4.4962-2.6447-9.5234-2.0018-14.38" />
     </g>
     <g stroke="#fff" fill="none" stroke-width="1px">
      <path data-start="135" data-duration="50" d="m299 436.36c-9.4322-11.485-12.55-27.852-8-42 .99974-3.1089 2.3736-6.1573 4.5371-8.6035 2.1636-2.4461 5.2007-4.245 8.4629-4.3965 2.1262-.0987 4.2793.51446 6.0344 1.7186s3.1021 2.9923 3.7752 5.0115c.67309 2.0192.66835 4.258-.0133 6.2744-.68161 2.0164-2.0362 3.7988-3.7964 4.9955" />
      <path data-start="135" data-duration="50" d="m304.64 451.53c-3.8-9.2226-4.9065-19.537-3.1492-29.355.31745-1.7737.7323-3.5494 1.5256-5.1673.79329-1.6179 1.9968-3.0808 3.5919-3.9189 1.8464-.97014 4.1538-1.0083 6.0312-.0997 1.8774.90858 3.2792 2.7417 3.6641 4.7917.38485 2.0499-.25659 4.2667-1.6767 5.7943-1.4201 1.5277-3.5842 2.329-5.6567 2.0946"/>
      <path data-start="135" data-duration="50" d="m278.02 394.36c-8.5203-11.457-13.158-25.749-12.986-40.026.0377-3.1481.31037-6.3343 1.3558-9.3041 1.0455-2.9697 2.9304-5.7285 5.6306-7.3474 3.0145-1.8073 6.8209-2.0311 10.194-1.0428 3.3729.98833 6.3374 3.0988 8.7693 5.6363 3.2508 3.3918 5.6755 7.6993 6.2537 12.362.28907 2.3312.11152 4.7279-.59809 6.9672-.70962 2.2393-1.9575 4.3164-3.6595 5.9354-2.6523 2.5231-6.4271 3.85-10.065 3.4423-3.6379-.40771-7.0586-2.574-8.8981-5.739-.72083-1.2403-1.2059-2.6238-1.3591-4.0501s.0307-2.8947.58485-4.2178c.55419-1.3232 1.4838-2.4953 2.6788-3.289 1.1949-.79375 2.6546-1.1978 4.0839-1.0752 1.3142.11278 2.586.67147 3.5582 1.563.97212.89148 1.6386 2.1104 1.8645 3.4099.22588 1.2995.01 2.6718-.60446 3.839-.61427 1.1672-1.623 2.1223-2.8221 2.672"/>
      <path data-start="135" data-duration="50" d="m257 364.36c-7.3582-3.6891-13.584-9.6007-17.649-16.758-4.06-7.15-5.95-15.53-5.35-23.74.20346-2.7784.6931-5.5638 1.7946-8.1227s2.8499-4.8898 5.2054-6.3773c2.9673-1.8738 6.7392-2.2739 10.144-1.4251 3.4052.84877 6.4496 2.8703 8.8556 5.4251 2.7719 2.9433 4.7751 6.6863 5.2763 10.698.50122 4.0119-.5937 8.2769-3.2763 11.302-2.4953 2.8137-6.3359 4.4221-10.081 4.0767-1.8724-.1727-3.7022-.81537-5.26-1.8685s-2.839-2.5161-3.6592-4.2082c-.55755-1.1503-.90374-2.4086-.95909-3.6857-.0553-1.2771.18462-2.5725.74242-3.7227s1.4378-2.1501 2.5359-2.8047c1.098-.65459 2.4134-.9538 3.6808-.7869 1.1059.14564 2.1625.64507 2.9771 1.4072.81453.76212 1.383 1.7832 1.6018 2.877.21877 1.0938.0867 2.255-.37203 3.2718-.45875 1.0168-1.242 1.8842-2.2068 2.444" />
      <path data-start="135" data-duration="50" d="m233 345.36c-8.2472-5.6282-14.126-14.617-15.978-24.429-1.8512-9.8116.34836-20.325 5.9777-28.571 5.6332-8.2521 14.451-14.06 24-17 8.9552-2.7573 18.882-3.061 27.555.48689 4.3362 1.774 8.3041 4.495 11.385 8.0242 3.0814 3.5292 5.257 7.8732 6.06 12.489.93141 5.3542-.0104 10.973-2.3853 15.862-2.3749 4.8883-6.143 9.0497-10.615 12.138-4.0094 2.7692-8.6116 4.7054-13.422 5.4799-4.8108.77457-9.8259.3722-14.4-1.307-4.5743-1.6792-8.6896-4.6485-11.603-8.5544-2.9133-3.9059-4.5936-8.7458-4.5745-13.619.0112-2.8546.59932-5.7133 1.784-8.3105s2.9701-4.9274 5.216-6.6895c2.8362-2.2253 6.409-3.5139 10.014-3.5382 3.6049-.0243 7.2173 1.2295 9.9861 3.5382 2.1101 1.7594 3.7201 4.1121 4.5961 6.7161.87594 2.604 1.0151 5.4515.39736 8.1285-.61778 2.677-1.9907 5.1755-3.9191 7.1324-1.9284 1.9568-4.4066 3.3661-7.0743 4.023" />
      <path data-start="135" data-duration="50" d="m184 327.36c-6.6345-10.599-9.1795-23.687-7-36 .76416-4.3169 2.1059-8.5756 4.3979-12.313 2.292-3.7371 5.5828-6.9365 9.6021-8.6873 4.2513-1.8519 9.1711-1.9918 13.61-.65053s8.3918 4.1131 11.39 7.6505c3.5712 4.2135 5.8188 9.5329 6.3509 15.031.53204 5.4977-.65385 11.149-3.3509 15.969-1.6864 2.9034-4.2176 5.3094-7.2027 6.8466s-6.4138 2.2003-9.7567 1.8869c-3.343-.3134-6.5887-1.6022-9.236-3.6674s-4.6872-4.8998-5.8046-8.066c-1.1443-3.2425-1.3111-6.8532-.28446-10.135 1.0267-3.2816 3.2762-6.1998 6.2845-7.8652 2.2242-1.2313 4.8406-1.7643 7.3606-1.4287 2.52.33557 4.926 1.5506 6.6394 3.4287 2.1693 2.3779 3.1441 5.795 2.5558 8.9595-.58827 3.1646-2.7259 6.003-5.6048 7.4425-2.879 1.4395-6.4323 1.4465-9.3169.0184s-5.0334-4.2582-5.6341-7.4204" />
      <path data-start="135" data-duration="50" d="m165 321.36c-14.242-1.3012-27.653-9.731-35-22-3.0756-5.1358-5.1479-11.016-5-17 .11322-4.5812 1.5558-9.1368 4.1899-12.887 2.6341-3.7499 6.4614-6.668 10.81-8.1133 3.3103-1.1002 6.8893-1.3481 10.335-.80146 3.4453.54663 6.754 1.8799 9.6654 3.8015 3.8757 2.558 7.0971 6.2522 8.574 10.655.73843 2.2013 1.0332 4.5585.78578 6.8672-.24744 2.3086-1.0432 4.5654-2.3598 6.478-2.161 3.1391-5.7443 5.2569-9.5364 5.6361-3.7921.37921-7.7238-.98705-10.464-3.6361" />
      <path data-start="135" data-duration="50" d="m269 390.36c.40435-5.1138-.73849-10.34-3.2404-14.818-2.502-4.4782-6.3532-8.1911-10.92-10.528-4.5668-2.3365-9.8311-3.2874-14.927-2.6963-5.0956.59113-10.002 2.722-13.913 6.0419-4.0545 3.4421-7.0157 8.1431-8.4148 13.274-1.3991 5.1312-1.2371 10.67.4148 15.726 1.671 5.1141 4.9455 9.7999 9.5361 12.606 2.2953 1.4029 4.8951 2.322 7.5717 2.5911 2.6766.26902 5.427-.12008 7.8922-1.1968 2.9714-1.2978 5.5169-3.6318 6.8793-6.5741 1.3624-2.9424 1.4772-6.4808.12071-9.4259-1.1548-2.507-3.3494-4.5152-5.9487-5.4436-2.5994-.92834-5.5696-.76469-8.0513.44359" />
      <path data-start="135" data-duration="50" d="m212 340.36c-6.5376-7.0062-15.832-11.368-25.399-11.92-9.5668-.55193-19.301 2.7123-26.601 8.9202-3.2244 2.742-5.9929 6.0479-7.9466 9.8028-1.9536 3.7548-3.0778 7.9646-3.0534 12.197.0451 7.8406 4.1293 15.396 10.202 20.356 6.0725 4.9601 13.96 7.4327 21.798 7.6437 5.5276.14877 11.255-.84956 15.837-3.9441 2.2913-1.5473 4.2563-3.6071 5.5577-6.0465s1.9202-5.2627 1.6049-8.0094c-.31906-2.7798-1.6033-5.4396-3.5819-7.4181-1.9786-1.9786-4.6383-3.2628-7.4181-3.5819" />
      <path data-start="135" data-duration="50" d="m162 323.36c-11.05-4.925-23.396-6.9059-35.432-5.6848-12.036 1.221-23.733 5.641-33.568 12.685-4.4087 3.1573-8.4969 6.89-11.367 11.491-2.8698 4.601-4.4473 10.148-3.6333 15.509.56993 3.7538 2.3188 7.3311 4.9856 10.034 2.6668 2.7025 6.2456 4.5058 10.014 4.9663 2.9756.36356 6.0453-.10446 8.7873-1.3161s5.1503-3.1612 6.9261-5.5764c1.7757-2.4152 2.9169-5.2891 3.306-8.2615.38906-2.9724.0276-6.0371-1.0193-8.8461-1.3328-3.5758-3.8038-6.7428-7.0331-8.776-3.23-2.03-7.213-2.89-10.97-2.22-1.7715.3155-3.4898.964-4.9924 1.954-1.5026.98995-2.7856 2.325-3.6578 3.8989-.87227 1.5739-1.3259 3.387-1.2325 5.184.09347 1.797.74303 3.5707 1.8827 4.9632 1.1662 1.4249 2.8364 2.4287 4.642 2.7898 1.8056.36111 3.7334.0769 5.358-.78984" />
      <path data-start="135" data-duration="50" d="m130 336.36c3.0092 6.2593 7.9629 11.567 14 15 3.0981 1.7618 6.5311 3.0507 10.091 3.2268 3.5596.17618 7.258-.84507 9.9092-3.2268 2.7797-2.4971 4.2001-6.4241 3.6611-10.122-.53903-3.6976-3.0214-7.0555-6.3984-8.6551-3.3769-1.5996-7.5478-1.3932-10.75.53209-3.2025 1.9253-5.3412 5.512-5.5124 9.2447v9" />
      <path data-start="135" data-duration="50" d="m113 351.36c-5.8821 5.2014-9.9616 12.404-11.398 20.124-1.4362 7.7196-.22006 15.907 3.3978 22.876 1.5358 2.9582 3.5112 5.7216 6.0436 7.8888 2.5323 2.1673 5.6466 3.7176 8.9564 4.1112 3.7291.44338 7.6435-.65469 10.511-3.0798 2.8673-2.4252 4.6112-6.1668 4.4892-9.9202-.0907-2.7902-1.1882-5.5252-2.9947-7.6536s-4.3027-3.6469-7.0053-4.3464c-2.6864-.69528-5.6334-.5715-8.1251.6497-1.2458.6106-2.365 1.4887-3.2211 2.5805-.85613 1.0918-1.4449 2.3982-1.6538 3.7698-.23889 1.5682.0302 3.217.79675 4.6058.76659 1.3888 2.0332 2.5036 3.5246 3.0442 1.4914.54055 3.1962.4915 4.6353-.17582s2.5874-1.9548 3.0433-3.4742c.50851-1.6947.12119-3.6313-1-5" />
      <path data-start="135" data-duration="50" d="m103 410.36c8.1353 10.763 17.958 20.247 29 28 3.407 2.3922 7.0046 4.6544 11.033 5.7031 2.0144.52436 4.1225.73427 6.1889.48476 2.0665-.2495 4.0906-.96881 5.7777-2.1878 2.3902-1.727 4.0155-4.4154 4.6562-7.2938.64068-2.8784.33212-5.9279-.6562-8.7062-.75994-2.1363-1.9269-4.1438-3.5193-5.7579s-3.6207-2.8229-5.835-3.3106c-2.2144-.48774-4.6108-.22802-6.6038.85313-1.9931 1.0812-3.5437 3.0033-4.0418 5.2154-.47694 2.1183.0415 4.4391 1.3746 6.1531s3.4548 2.7878 5.6254 2.8469" />
      <path data-start="135" data-duration="50" d="m152 468.36c3.859 2.0288 8.6358 2.2179 12.643.50049 4.0073-1.7174 7.1647-5.3069 8.3569-9.5005.72944-2.5658.73937-5.3533-.11202-7.8812s-2.5839-4.7747-4.888-6.1188c-2.5778-1.5038-5.856-1.8037-8.6158-.66805-1.3799.56785-2.6201 1.4775-3.5622 2.6346-.94214 1.1572-1.5828 2.5605-1.822 4.0334-.22937 1.4122-.0873 2.8879.44299 4.2167.53025 1.3288 1.4515 2.5045 2.6365 3.3062 1.185.80163 2.6314 1.2204 4.0598 1.1386 1.4283-.0819 2.8285-.67076 3.8607-1.6615.79128-.75949 1.3648-1.7558 1.5649-2.8342.20006-1.0784.0143-2.2344-.56489-3.1658-.36798-.59179-.88879-1.0877-1.4979-1.4262-.60912-.33852-1.3052-.51896-2.0021-.51896-.69687 0-1.393.18044-2.0021.51896-.60912.33851-1.1299.83438-1.4979 1.4262" />
      <path data-start="135" data-duration="50" d="m117 343.36c-4.6607 17.053-18.232 31.4-35 37-4.2962 1.4348-8.8947 2.3291-13.358 1.56-2.2319-.38459-4.4042-1.19-6.2756-2.4654-1.8715-1.2754-3.4337-3.0306-4.366-5.0945-1.3898-3.0766-1.3104-6.6645-.39480-9.914.91558-3.2494 2.6106-6.2201 4.3948-9.086 2.2121-3.5534 4.6683-7.089 8.1191-9.458 1.7254-1.1845 3.6872-2.0538 5.755-2.3765 2.0678-.32266 4.2436-.0805 6.1259.83446 1.5315.74446 2.8454 1.9248 3.7651 3.358.91966 1.4332 1.4444 3.1142 1.5224 4.8153.07792 1.7011-.28921 3.4183-1.0389 4.9473-.74970 1.529-1.8789 2.8676-3.2485 3.8795-1.866 1.3787-4.1799 2.1408-6.5 2.1408s-4.634-.76209-6.5-2.1408" />
      <path data-start="135" data-duration="50" d="m98 392.36c3.8235 9.235 3.3895 20.135-1.1561 29.037-4.546 8.9-13.121 15.64-22.844 17.96-3.5289.84123-7.2371 1.121-10.789.38231-3.5517-.73871-6.941-2.5527-9.2112-5.3823-1.4175-1.7668-2.3733-3.8953-2.7877-6.1223-.41445-2.2269-.29016-4.548.32464-6.7282 1.2296-4.3602 4.4406-8.0655 8.4631-10.15 2.6558-1.376 5.669-2.0795 8.6564-1.9333 2.9875.14622 5.9401 1.1529 8.3436 2.9333 2.926 2.1675 4.99 5.4989 5.5181 9.1017.52811 3.6029-.51729 7.4297-2.8882 10.193-2.3709 2.7637-6.0471 4.3871-9.6819 4.1697-1.8174-.10871-3.6085-.66006-5.1649-1.6048-1.556-.94-2.874-2.28-3.783-3.86-1.305-2.26-1.738-5.02-1.19-7.57.548-2.56 2.071-4.9 4.19-6.43" />
      <path data-start="135" data-duration="50" d="m113 435.36c2.6299 2.1545 4.5606 5.1491 5.4378 8.4337.8771 3.2846.69617 6.8431-.50956 10.022-1.2057 3.1787-3.4303 5.962-6.2651 7.8387-2.8348 1.8766-6.2659 2.8374-9.6631 2.7058-3.8358-.1486-7.6364-1.7246-10.305-4.4837-2.6689-2.7591-4.1279-6.7021-3.6947-10.516.26192-2.3061 1.2129-4.5555 2.8135-6.2361 1.6007-1.6806 3.8656-2.7546 6.1865-2.7639 1.4984-.006 2.996.42731 4.2598 1.2324 1.2638.80508 2.2894 1.9792 2.9173 3.3397.62794 1.3605.856 2.9027.64873 4.3868-.20728 1.484-.84917 2.9047-1.8258 4.0411" />
      <path data-start="135" data-duration="50" d="m115 297.36c-17.15-4.7366-32.24-16.514-41-32-3.1321-5.5367-5.5207-11.755-5.123-18.104.19887-3.1744 1.1141-6.3291 2.8395-9.001 1.7254-2.672 4.2834-4.8384 7.2835-5.8947 3.9734-1.3989 8.5333-.74812 12.161 1.3926 3.6279 2.1407 6.3378 5.6714 7.8388 9.6074.99471 2.6085 1.4874 5.4223 1.3017 8.2079-.18567 2.7855-1.0622 5.5394-2.6338 7.8466-1.5716 2.3073-3.8489 4.1509-6.48 5.0842-2.6311.93327-5.6076.92694-8.1879-.13867-1.8697-.77214-3.5154-2.0914-4.6439-3.7703-1.1285-1.6788-1.73-3.7131-1.6576-5.7347.07242-2.0216.82491-4.0188 2.1338-5.5611s3.1704-2.6139 5.1678-2.934c1.8264-.29264 3.7478.0453 5.3647.94359 1.6169.89828 2.9189 2.3511 3.6353 4.0564" />
      <path data-start="135" data-duration="50" d="m126 307.36c-21.693 3.0815-44.281-.44778-64-10-3.6349-1.7608-7.1909-3.7316-10.367-6.2269-3.1759-2.4953-5.9725-5.539-7.8325-9.1242s-2.7429-7.7372-2.1029-11.725c.63991-3.9879 2.8859-7.7693 6.3023-9.9237 2.9673-1.8712 6.7318-2.4318 10.113-1.4962 3.381.93557 6.3246 3.3554 7.8872 6.4962 1.7968 3.6116 1.6947 8.1047-.26429 11.631-1.958 3.53-5.719 5.99-9.735 6.37" />
      <path data-start="135" data-duration="50" d="m105 279.36c-2.8838-18.087 3.689-37.419 17-50 4.9062-4.6371 10.735-8.4236 17.228-10.271 6.4931-1.8474 13.683-1.6445 19.772 1.271 6.2364 2.9862 11.064 8.8385 12.656 15.567 1.5916 6.7289-.14187 14.195-4.6558 19.433-3.5194 4.0838-8.7185 6.7759-14.108 6.9025-2.6948.0633-5.4084-.50349-7.8301-1.6873s-4.5446-2.9871-6.0618-5.2152c-2.1423-3.146-3.0227-7.146-2.3067-10.884.71603-3.7382 3.0431-7.1574 6.3067-9.1158 2.2062-1.3239 4.8142-1.9806 7.3818-1.815 2.5676.16558 5.0819 1.1595 7.0406 2.8279s3.3448 4.0071 3.8254 6.5348c.48055 2.5277.0435 5.2269-1.2478 7.4523-1.3124 2.2618-3.496 4.0032-5.9932 4.7793-2.4972.77613-5.2832.57934-7.6464-.54011-2.3633-1.1195-4.2804-3.1505-5.2618-5.5743-.9814-2.4239-1.0173-5.2166-.0986-7.6649" />
      <path data-start="135" data-duration="50" d="m326 385.36c4.0654-3.9248 6.7239-9.2778 7.3943-14.889.67041-5.6109-.65208-11.44-3.6783-16.212-3.0262-4.7721-7.7346-8.4536-13.096-10.24-5.3611-1.786-11.337-1.6638-16.62.34003-2.474.93825-4.8056 2.283-6.7716 4.0539-1.966 1.7708-3.5597 3.9743-4.5066 6.445-.94692 2.4707-1.2323 5.2095-.68998 7.7993.54231 2.5897 1.9294 5.0154 3.9682 6.7019 2.6254 2.1717 6.2548 3.0144 9.6054 2.3953 3.3505-.61901 6.3857-2.6434 8.3946-5.3953 1.2088-1.6559 2.0678-3.5846 2.3597-5.6139.29181-2.0293-.0003-4.1581-.94489-5.9777s-2.5578-3.3076-4.493-3.9844c-1.9352-.67683-4.1771-.50084-5.9218.57593-1.4579.8998-2.5287 2.4053-2.9004 4.0777-.37165 1.6724-.0392 3.4897.90036 4.9223" />
      <path data-start="135" data-duration="50" d="m344 322.36c7.7864-5.0243 13.041-13.781 13.81-23.016.76956-9.2347-2.963-18.74-9.8104-24.984-3.6112-3.2928-8.0813-5.713-12.895-6.5558-4.8138-.84281-9.9642-.04-14.105 2.5558-2.4627 1.5439-4.5424 3.6983-5.9798 6.2246-1.4375 2.5263-2.2278 5.4202-2.2527 8.3267s.7181 5.8188 2.1508 8.3477 3.5536 4.6667 6.0817 6.101c4.1211 2.3382 9.3485 2.6944 13.684.78307 2.1678-.95565 4.0992-2.4489 5.552-4.3203s2.422-4.1185 2.7638-6.4628c.34953-2.3973.0374-4.8949-.94088-7.1113-.97829-2.2164-2.626-4.1405-4.6938-5.4028-2.0678-1.2624-4.5499-1.8493-6.9591-1.5941-2.4092.25521-4.7284 1.3606-6.4062 3.1082-1.34 1.3957-2.2636 3.1865-2.6237 5.0876-.36014 1.9011-.1556 3.9055.58111 5.6947s2.0029 3.3565 3.5972 4.4527c1.5944 1.0963 3.511 1.7176 5.4453 1.765" />
      <path data-start="135" data-duration="50" d="m376 250.36c-1.2757-5.9466-4.2365-11.522-8.4484-15.91-4.2119-4.3874-9.662-7.5732-15.552-9.0905-5.6996-1.4684-11.959-1.3315-17.243 1.2607-2.6421 1.2961-5.0029 3.1933-6.7398 5.5689s-2.8356 5.2331-3.0172 8.1704c-.18666 3.0205.60658 6.0888 2.205 8.6584s3.9907 4.632 6.7541 5.8656 5.8856 1.6382 8.8774 1.1835c2.9919-.45473 5.8446-1.7631 8.1634-3.7075 1.7286-1.4495 3.1793-3.2757 3.9703-5.3885.79099-2.1127.88371-4.5235.0297-6.6115-.81516-1.9932-2.4878-3.6184-4.5036-4.3759-2.0158-.75751-4.3448-.63607-6.2709.32696s-3.4206 2.7534-4.0241 4.8205c-.60346 2.0671-.30687 4.3804.79856 6.2284" />
      <path data-start="135" data-duration="50" d="m302 181.36c-15.147 4.6428-31.386 5.6793-47 3-5.849-1.0037-11.659-2.5394-16.94-5.2468-5.2809-2.7074-10.03-6.6505-13.06-11.753-3.768-6.346-4.6311-14.305-2.4785-21.365 2.1526-7.0594 7.2476-13.137 13.74-16.647 6.4925-3.5095 14.296-4.4508 21.48-2.7599s13.701 5.9659 18.258 11.772c2.7695 3.5285 4.8532 7.6679 5.5498 12.099.69656 4.4312-.0724 9.1615-2.5498 12.901-1.5564 2.3492-3.7681 4.2728-6.3453 5.4124s-5.5146 1.4796-8.2676.87781c-2.7529-.60176-5.3017-2.1559-7.0336-4.3788s-2.6181-5.1058-2.3535-7.9113c.16821-1.7834.7965-3.5311 1.8633-4.97 1.0668-1.439 2.577-2.5582 4.2874-3.0904 1.7104-.53218 3.6145-.46104 5.2524.2642s2.9857 2.1125 3.5969 3.7963c.5747 1.5832.48194 3.3968-.25129 4.9131-.73322 1.5163-2.0972 2.7152-3.6951 3.2478-1.5978.5326-3.4084.39188-4.9047-.3812-1.4963-.77309-2.6588-2.1684-3.1489-3.7797" />
      <path data-start="135" data-duration="50" d="m257 218.36c-3.3122 12.09-13.049 22.216-25 26-8.0425 2.5462-17.197 2.2139-24.505-2.0009-3.6538-2.1074-6.7857-5.1515-8.8577-8.8254s-3.0592-7.9769-2.6377-12.174c.39646-3.9475 2.0526-7.7761 4.7429-10.692 2.6904-2.9158 6.4127-4.8854 10.352-5.3576 3.9391-.47224 8.0611.58181 11.224 2.9768 3.1628 2.395 5.3085 6.1229 5.6812 10.073.37432 3.9661-1.084 8.0962-3.9647 10.848-1.4404 1.3758-3.2117 2.4059-5.1252 2.9591-1.9135.55322-3.966.6267-5.9101.19311-2.4127-.53812-4.6802-1.9003-6.0786-3.9387-.69919-1.0192-1.1748-2.1956-1.3462-3.4196-.17139-1.2241-.0349-2.4943.42482-3.6416.5928-1.4795 1.7279-2.7346 3.1405-3.4726 1.4126-.73804 3.0912-.95293 4.6442-.59454 1.553.35838 2.9677 1.2871 3.914 2.5695.94637 1.2824 1.4167 2.908 1.3012 4.4976" />
      <path data-start="135" data-duration="50" d="m275 198.36c-8.5995 5.2564-18.122 8.9974-28 11-5.5206 1.1192-11.395 1.6714-16.672-.30087-2.6382-.98613-5.0681-2.6126-6.7995-4.834s-2.7269-5.0556-2.5287-7.8651c.1336-1.8937.80545-3.7465 1.9167-5.2857s2.6584-2.7601 4.4139-3.4829c1.7554-.72282 3.7137-.94538 5.5866-.63493 1.8729.31046 3.6546 1.153 5.0829 2.4036" />
      <path data-start="135" data-duration="50" d="m247 247.36c5.1587 10.424 15.526 18.103 27 20 3.4299.56713 7.0409.6288 10.288-.61198 1.6238-.62039 3.1342-1.5663 4.3282-2.8295 1.194-1.2633 2.0624-2.8502 2.3834-4.5585.29174-1.5526.12607-3.1829-.43503-4.6596s-1.5123-2.798-2.7088-3.8294c-2.3931-2.0628-5.7207-2.8998-8.8561-2.5109-1.5775.19563-3.1612.70785-4.3593 1.7526-.59904.52236-1.0916 1.1735-1.3915 1.9096-.29982.73608-.40197 1.5578-.24922 2.3378.14817.75659.53683 1.4642 1.0958 1.9951.55901.53094 1.2857.88267 2.0489.9917.76321.10903 1.5593-.0252 2.2446-.37833.68531-.35318 1.2566-.92367 1.6106-1.6085" />
      <path data-start="135" data-duration="50" d="m257 213.36c.15445 4.7195 1.9506 9.3696 5.0088 12.968 3.0582 3.5979 7.3582 6.1197 11.991 7.0325 3.794.74747 7.8987.39074 11.246-1.5455 1.6736-.96814 3.1339-2.3207 4.1614-3.9586 1.0274-1.6379 1.6125-3.5625 1.5927-5.4959-.0217-2.117-.77904-4.2195-2.1122-5.8641s-3.2335-2.8205-5.3002-3.2798c-2.0667-.45928-4.2862-.19886-6.1905.72633s-3.4808 2.509-4.3971 4.4176" />
      <path data-start="135" data-duration="50" d="m345 317.36c-7.1764-24.221-8.8978-50.041-5-75 3.2626-20.892 10.49-41.262 22-59 2.1331-3.2874 4.4242-6.4991 7.2005-9.2649 2.7763-2.7657 6.0686-5.0836 9.785-6.3266s7.881-1.3501 11.51.1289c1.8145.73952 3.4766 1.867 4.7913 3.3199s2.276 3.2327 2.7132 5.1427c.40773 1.7815.35569 3.6661-.14971 5.4224-.5054 1.7562-1.4631 3.3803-2.7553 4.6726s-2.9163 2.2499-4.6726 2.7553c-1.7562.5054-3.6409.55744-5.4224.14971" />
      <path data-start="135" data-duration="50" d="m324 179.36c-3.7487-1.2502-7.0863-3.7021-9.3999-6.9056s-3.5919-7.1428-3.6001-11.094c-.007-3.3704.90105-6.7347 2.5778-9.6585 1.6767-2.9238 4.1157-5.4019 6.9974-7.15 5.7634-3.4962 13.244-3.8822 19.425-1.1915 3.6258 1.5785 6.8973 4.271 8.4842 7.8931.79346 1.8111 1.1461 3.8268.91652 5.7906-.22954 1.9639-1.0538 3.8687-2.4007 5.3162-1.1818 1.27-2.7537 2.172-4.4465 2.5513-1.6928.37934-3.4993.23445-5.1101-.40984-1.6107-.64429-3.0188-1.7852-3.983-3.2274-.96423-1.4422-1.4805-3.1794-1.4604-4.9141" />
      <path data-start="135" data-duration="50" d="m399 230.36c7.4632-23.757 6.0142-50.201-4-73-2.2345-5.0872-4.9125-10.046-8.6176-14.186-3.7051-4.1406-8.5202-7.4381-13.951-8.6131-2.7153-.58753-5.5575-.63491-8.2701-.035-2.7126.59992-5.2907 1.8556-7.3677 3.7006s-3.6395 4.2842-4.3481 6.9705c-.70858 2.6863-.54438 5.6115.55432 8.1631 1.258 2.9216 3.7436 5.2911 6.722 6.408s6.4091.96604 9.278-.40801" />
      <path data-start="135" data-duration="50" d="m377 278.36c2.0765-5.7002 5.5369-10.891 10-15 4.1123-3.7862 9.1075-6.6669 14.535-8.0063 5.427-1.3394 11.285-1.0929 16.465 1.0063 3.3676 1.3645 6.4791 3.554 8.4703 6.5934.99559 1.5197 1.6992 3.2383 1.9863 5.0323.28714 1.794.15173 3.6624-.45659 5.3743-.8252 2.3223-2.5341 4.3202-4.7056 5.4859-2.1714 1.1657-4.7852 1.4856-7.171.86764s-4.5184-2.1698-5.8313-4.2556c-1.3128-2.0858-1.7896-4.6842-1.2922-7.098.4973-2.4134 1.9636-4.6127 4-6" />
      <path data-start="135" data-duration="50" d="m406 196.36c.20113-15.151 3.633-30.251 10-44 2.0556-4.4389 4.4432-8.7816 7.7149-12.418 3.2716-3.6367 7.5038-6.5481 12.285-7.5817 4.5853-.99124 9.4492-.19803 13.732 1.7153 4.2833 1.9133 8.022 4.8974 11.268 8.2847 1.7895 1.8677 3.4515 3.8777 4.7319 6.1252s2.1722 4.7461 2.3528 7.3265c.18064 2.5803-.38049 5.2451-1.7977 7.409s-3.7256 3.7797-6.2871 4.1393c-2.0507.28791-4.205-.24328-5.8868-1.4515-1.6818-1.2083-2.8728-3.0804-3.2544-5.1157-.38163-2.0354.0502-4.2117 1.1801-5.9472 1.1299-1.7354 2.9454-3.011 4.9611-3.4855" />
      <path data-start="135" data-duration="50" d="m449 196.36c3.5575 1.9717 6.0824 5.702 6.591 9.7375.50858 4.0354-1.0118 8.2756-3.9689 11.068-2.957 2.7927-7.277 4.0686-11.277 3.3304-3.9998-.73816-7.5799-3.472-9.3453-7.1362-.98809-2.0509-1.4237-4.3648-1.2491-6.6346s.95901-4.4898 2.2491-6.3654" />
      <path data-start="135" data-duration="50" d="m360 318.36c4.8902-.61239 9.9385.0879 14.477 2.0081 4.5388 1.9203 8.5569 5.0558 11.523 8.9919 3.0889 4.0994 5.0353 9.1087 5.1949 14.239.1596 5.1304-1.5303 10.354-4.9133 14.214-3.383 3.8602-8.4786 6.2482-13.608 6.0656-2.5648-.0913-5.1101-.80831-7.3244-2.1057-2.2144-1.2974-4.0907-3.1762-5.3489-5.4131-1.7755-3.1566-2.2696-7.0102-1.3479-10.513.92168-3.5024 3.2487-6.6137 6.3479-8.4874" />
      <path data-start="135" data-duration="50" d="m392 292.36c8.6435-2.0313 18.012-.80475 25.842 3.383 7.8293 4.1878 14.05 11.3 17.158 19.617 2.2547 6.0331 2.8587 12.892.49485 18.883-1.1819 2.9956-3.0971 5.7204-5.6194 7.7226-2.5222 2.0022-5.658 3.2591-8.8755 3.3945-4.7056.19792-9.3908-2.0797-12.355-5.7396s-4.2207-8.5859-3.645-13.26c.40255-3.2687 1.7084-6.4886 4.0296-8.825 1.1606-1.1682 2.5637-2.1028 4.1096-2.6701 1.5459-.56731 3.2343-.76186 4.8608-.50491 2.4102.38076 4.6451 1.7824 6.0245 3.7952s1.8798 4.6098 1.3318 6.9876c-.54797 2.3778-2.1399 4.4983-4.2778 5.6745-2.1379 1.1763-4.7882 1.3847-7.0784.54274-2.1032-.77321-3.8718-2.415-4.799-4.455-.92724-2.0399-1.0013-4.452-.20097-6.545" />
      <path data-start="135" data-duration="50" d="m450 295.36c.87203 4.5428 3.7154 8.6716 7.6484 11.106 3.9331 2.4348 8.8966 3.1387 13.352 1.8936 4.628-1.2934 8.6253-4.6722 10.692-9.0106 2.0665-4.3383 2.1738-9.561.30818-13.989-.95722-2.2721-2.4205-4.3453-4.3243-5.9119s-4.2539-2.6125-6.7076-2.8537c-2.4537-.24119-5.0011.34425-7.0364 1.7357s-3.5233 3.5985-3.9317 6.03c-.2394 1.4252-.11114 2.9165.41087 4.2641s1.4417 2.5453 2.6349 3.3606c1.1932.81535 2.6581 1.2383 4.1 1.1399 1.4418-.0984 2.8491-.72625 3.8543-1.7645 1.0196-1.0532 1.6046-2.5152 1.5927-3.981-.0118-1.4658-.62033-2.9182-1.6569-3.9548s-2.4889-1.645-3.9548-1.6569-2.9279.57305-3.981 1.5927" />
      <path data-start="135" data-duration="50" d="m455 345.36c3.1538 2.8221 7.1756 4.6603 11.373 5.1983 4.1977.538 8.5532-.22657 12.317-2.1621 3.7635-1.9355 6.9188-5.0336 8.9229-8.7611 2.004-3.7275 2.8482-8.0682 2.387-12.275-.3636-3.3172-1.5805-6.625-3.9032-9.0211-1.1614-1.198-2.5874-2.1499-4.1651-2.6928-1.5778-.54285-3.3074-.66817-4.9316-.28615-1.5916.37435-3.0656 1.2367-4.1686 2.4436s-1.8298 2.7537-2.0506 4.3738c-.22078 1.62.0661 3.3062.81414 4.7601.74802 1.4539 1.9543 2.6684 3.405 3.4225 1.4262.74133 3.0814 1.0341 4.6754.82698 1.5939-.20714 3.1194-.91325 4.3087-1.9945s2.0372-2.5327 2.3949-4.0997c.35765-1.567.22348-3.2426-.37897-4.7328" />
      <path data-start="135" data-duration="50" d="m452 359.36c3.4778 4.245 5.6762 9.5246 6.2391 14.983.56286 5.4588-.512 11.076-3.0504 15.941-2.5384 4.8653-6.5307 8.9603-11.33 11.621-4.7993 2.6611-10.387 3.8782-15.859 3.4541-3.989-.30922-7.977-1.5143-11.174-3.9194-3.1974-2.4051-5.5289-6.0906-5.8256-10.081-.13164-1.7703.1349-3.5745.81765-5.2132.68275-1.6386 1.7849-3.107 3.1973-4.1824 1.4123-1.0754 3.1344-1.7502 4.9054-1.8732 1.7709-.123 3.5836.31338 5.0797 1.2688 1.5978 1.0204 2.8117 2.6272 3.3564 4.4431.54476 1.8158.41586 3.8256-.35641 5.5569" />
      <path data-start="135" data-duration="50" d="m329 470.36c18.765-24.023 31.282-52.884 36-83 .68665-4.3835 1.2114-8.849.63861-13.249-.57284-4.3998-2.3459-8.7772-5.6386-11.751-2.3409-2.1143-5.4087-3.437-8.5602-3.5723-3.1515-.13531-6.3598.9427-8.7162 3.0398-2.3563 2.0971-3.8089 5.2074-3.7928 8.3618s1.5362 6.2906 4.0691 8.1707c1.4123 1.0483 3.1118 1.7057 4.8619 1.8807 1.7501.17502 3.5461-.13283 5.1381-.88071" />
      <path data-start="135" data-duration="50" d="m376 434.36c10.833-4.8141 19.845-13.605 24.927-24.314 5.0825-10.71 6.1933-23.25 3.0725-34.686-1.1892-4.358-3.0736-8.7003-6.4519-11.699-1.6891-1.4995-3.7354-2.625-5.9465-3.0864-2.211-.46144-4.5864-.23428-6.6017.78564-2.1888 1.1077-3.8858 3.1452-4.5872 5.4959-.70142 2.3507-.39969 4.9816.80864 7.1165s3.3053 3.7464 5.6772 4.3724c2.3719.62599 4.9877.26043 7.1013-.98478 1.552-.91438 2.83-2.2875 3.6308-3.9011.80076-1.6136 1.1214-3.4618.9109-5.2508-.21047-1.789-.95127-3.5124-2.1047-4.8961s-2.7151-2.4228-4.437-2.952" />
      <path data-start="135" data-duration="50" d="m443 424.36c4.4246 3.9014 10.126 6.3308 16.004 6.82 5.8786.48919 11.903-.96452 16.911-4.0809 5.0085-3.1164 8.9741-7.8785 11.132-13.368 2.1583-5.4899 2.4975-11.678.95222-17.371-1.2319-4.5385-3.7836-8.8955-7.7881-11.361-2.0023-1.2327-4.3357-1.9572-6.687-1.9382s-4.7114.80246-6.5249 2.2992c-1.413 1.1662-2.4826 2.764-2.9342 4.5396-.45159 1.7756-.26559 3.7218.59426 5.3396s2.4031 2.8772 4.1832 3.3108c.89004.21674 1.8302.23047 2.7237.0283.89347-.20215 1.7385-.62087 2.433-1.2182 1.346-1.1577 2.0707-2.9993 1.8746-4.7638-.19606-1.7646-1.3073-3.4021-2.8746-4.2362" />
      <path data-start="135" data-duration="50" d="m379 303.36c1.0206-2.6807 2.9582-5.0027 5.4129-6.4868s5.411-2.121 8.259-1.7792c2.848.34177 5.5698 1.66 7.6036 3.6827 2.0339 2.0227 3.367 4.7372 3.7245 7.5833.37522 2.9879-.33119 6.1-1.9596 8.6331s-4.1664 4.4678-7.0404 5.3669" />
      <path data-start="135" data-duration="50" d="m561 346.36c-4.5292-5.3437-11.09-8.9216-18.035-9.8354-6.945-.91381-14.208.8452-19.965 4.8354-5.5777 3.8657-9.7077 9.8146-11.23 16.428-1.522 6.6135-.38423 13.828 3.2297 19.572 1.7933 2.8502 4.1775 5.3406 7.0085 7.1641s6.1106 2.9696 9.4704 3.1969c3.3598.22733 6.7925-.47741 9.7399-2.106s5.3898-4.1885 6.7812-7.255c1.1119-2.4505 1.5469-5.204 1.2446-7.878-.30227-2.6739-1.341-5.2609-2.9718-7.4013-1.6308-2.1405-3.8493-3.8286-6.3471-4.8297-2.4978-1.0012-5.268-1.3126-7.9258-.89101" />
      <path data-start="135" data-duration="50" d="m566 378.36c-1.2523-11.715-.2277-23.669 3-35 1.3114-4.6035 3.0264-9.1851 5.9647-12.964 1.4692-1.8893 3.2384-3.5594 5.2819-4.8054 2.0434-1.246 4.3662-2.0599 6.7534-2.2309 2.4094-.17265 4.8646.31861 7.0166 1.4157 2.1521 1.0971 3.994 2.7981 5.2483 4.8625 1.2544 2.0644 1.9159 4.4863 1.8732 6.9015s-.79091 4.8154-2.1382 6.8203c-1.4797 2.202-3.6785 3.9123-6.1769 4.8046s-5.2832.96185-7.8231.19539" />
      <path data-start="135" data-duration="50" d="m540 427.36c10.699-3.7742 22.76-3.5426 33.307.6397 10.547 4.1822 19.488 12.279 24.693 22.36 3.4274 6.6383 5.26 14.37 3.6102 21.657-.82493 3.6432-2.5235 7.1112-5.0502 9.8625-2.5266 2.7513-5.8947 4.7602-9.56 5.4806-5.1565 1.0135-10.661-.60721-14.782-3.869-4.1204-3.2618-6.9003-8.0439-8.2185-13.131-.64051-2.4718-.9553-5.0441-.73301-7.5878.2223-2.5437.9959-5.0606 2.4058-7.1895s3.4751-3.852 5.8899-4.6819c2.4148-.82991 5.1735-.72177 7.4374.45926 1.5437.80533 2.8323 2.0914 3.6406 3.6335.80834 1.5421 1.1329 3.3335.91691 5.0612-.21596 1.7277-.97146 3.384-2.1345 4.6798-1.1631 1.2957-2.7286 2.225-4.423 2.6256" />
      <path data-start="135" data-duration="50" d="m596 390.36c4.5283-10.603 13.597-19.175 24.438-23.1 10.841-3.9251 23.295-3.1456 33.562 2.1004 3.473 1.7746 6.7111 4.0451 9.413 6.8576 2.7018 2.8126 4.8589 6.1773 6.0882 9.8785s1.5095 7.7419.59937 11.534c-.91012 3.7924-3.0376 7.3153-6.1006 9.7295-3.7761 2.9763-8.9006 4.1361-13.609 3.1638-4.7087-.97229-8.928-4.0344-11.391-8.1638-1.0736-1.8002-1.8286-3.8-2.121-5.8756-.29242-2.0755-.11485-4.2266.6008-6.1967s1.9778-3.7516 3.6548-5.009 3.7701-1.9738 5.8654-1.9187c1.7058.0448 3.3949.5995 4.7952 1.5746s2.5064 2.367 3.1401 3.9513c.63372 1.5843.79263 3.3551.45112 5.0269-.3415 1.6718-1.1822 3.2384-2.3864 4.4472" />
      <path data-start="135" data-duration="50" d="m571 411.36c8.2046-6.0222 17.978-9.8877 28.082-11.107 10.104-1.2195 20.516.20992 29.918 4.1072 4.6564 1.9302 9.0926 4.4744 12.852 7.8322 3.7593 3.3579 6.8276 7.5554 8.5165 12.305 1.689 4.7492 1.9447 10.06.34785 14.841s-5.1147 8.9646-9.7163 11.022c-4.6793 2.0922-10.343 1.8506-14.811-.66198-4.4677-2.5126-7.6216-7.2438-8.189-12.338-.46486-4.174.78124-8.5076 3.3678-11.816 2.5866-3.3088 6.4789-5.5603 10.632-6.1837 4.8199-.72345 9.9866.81802 13.438 4.2591 1.7258 1.7205 3.015 3.8818 3.6741 6.2279.65905 2.3461.68232 4.8724.0316 7.2208-.65075 2.3484-1.9779 4.5104-3.8016 6.1268s-4.1402 2.6771-6.5599 2.9661c-2.4197.28896-4.9317-.20078-7.0482-1.4087s-3.822-3.1322-4.7342-5.392c-1.023-2.5345-1.023-5.4655 0-8" />
      <path data-start="135" data-duration="50" d="m509 447.36c4.2841.70468 8.3292 2.7942 11.383 5.8802 3.054 3.0859 5.1015 7.1525 5.7617 11.444.66018 4.2912-.0703 8.7852-2.0555 12.646-1.9853 3.8612-5.2153 7.07-9.0894 9.0298-3.3182 1.6785-7.1034 2.4425-10.807 2.113-3.7039-.32951-7.3127-1.7606-10.193-4.113-1.8272-1.4925-3.3634-3.3536-4.406-5.47-1.0425-2.1164-1.5835-4.4891-1.4762-6.8459.10733-2.3568.87273-4.6917 2.2508-6.6067 1.378-1.915 3.3732-3.3943 5.6314-4.0774 2.7249-.82424 5.7906-.4451 8.2326 1.0181s4.2222 3.9878 4.7805 6.7793-.11399 5.8065-1.8053 8.0964c-1.6914 2.2899-4.3754 3.819-7.2077 4.1062" />
      <path data-start="135" data-duration="50" d="m349 453.36c11.682-3.977 25.31-1.6409 35 6 2.7501 2.1685 5.254 4.8262 6.461 8.1138.6035 1.6438.86513 3.4259.64638 5.1632-.21876 1.7374-.93099 3.4259-2.1074 4.723-1.101 1.2138-2.5853 2.0595-4.1734 2.464-1.588.40454-3.2745.37608-4.8684-.005-3.1878-.76166-5.9218-2.8912-7.9583-5.4593-1.3022-1.6421-2.3832-3.5541-2.562-5.6423-.0894-1.0441.0553-2.1163.48566-3.0717.43032-.95547 1.1542-1.7882 2.0764-2.286 1.0393-.56107 2.3122-.67161 3.4327-.29812 1.1205.3735 2.0725 1.2257 2.5673 2.2981" />
      <path data-start="135" data-duration="50" d="m381 430.36c11.328 2.4888 21.742 8.9527 29 18 1.6124 2.01 3.0809 4.1558 4.1285 6.5101 1.0475 2.3542 1.6641 4.9313 1.5298 7.5046-.13433 2.5733-1.0552 5.1405-2.7858 7.0498-.86526.9546-1.9245 1.7373-3.1049 2.2536-1.1804.51632-2.4818.76325-3.7676.68198-1.6245-.10267-3.1936-.72648-4.5292-1.6569-1.3356-.9304-2.4462-2.1587-3.3586-3.5066-1.8249-2.6958-2.86-5.8316-4.1122-8.8365-.76205-1.8287-1.621-3.6574-1.8519-5.625-.11546-.98382-.0678-1.9955.22672-2.9413.29448-.94578.845-1.8234 1.6252-2.4338.67263-.52617 1.5063-.84275 2.3584-.89904.85213-.0563 1.7192.14743 2.4588.57438.73959.42695 1.3491 1.0751 1.7329 1.838.38378.76288.54087 1.6376.44991 2.4867-.10856 1.0135-.57326 1.9853-1.294 2.706-.72074.72074-1.6925 1.1854-2.706 1.294" />
      <path data-start="135" data-duration="50" d="m434 425.36c22.529 14.925 42.294 34.008 58 56 5.8279 8.1607 11.194 16.94 13.3 26.744 1.0531 4.9022 1.2599 10.018.27677 14.935-.98312 4.9167-3.186 9.6275-6.5771 13.321-3.5389 3.8543-8.3344 6.525-13.464 7.5554-5.1301 1.0304-10.569.42351-15.366-1.6645-4.7978-2.088-8.9381-5.6416-11.774-10.039-2.8357-4.3975-4.3625-9.6194-4.3954-14.852-.0375-5.9756 1.91-11.994 5.6777-16.633 3.7676-4.6384 9.3724-7.8123 15.322-8.3671 5.8691-.54727 11.986 1.5374 16.117 5.7422 2.0655 2.1024 3.6299 4.6995 4.489 7.5188.85909 2.8193 1.008 5.8564.39428 8.739-.64388 3.0245-2.1268 5.8636-4.2285 8.1319s-4.8152 3.9611-7.7715 4.8681c-2.3559.72278-4.8836.94897-7.3036.48426-2.42-.46472-4.7244-1.6412-6.3997-3.4483-1.6753-1.8072-2.6854-4.256-2.6063-6.719.079-2.463 1.294-4.8993 3.3096-6.3169 1.7743-1.2479 4.1127-1.6574 6.2054-1.0866 2.0927.57074 3.8995 2.1108 4.7946 4.0866" />
      <path data-start="135" data-duration="50" d="m549 475.36c6.1413 5.448 10.507 12.866 12.288 20.88 1.7809 8.014.96807 16.583-2.2878 24.12-2.0581 4.7638-5.1332 9.1764-9.3245 12.236-4.1913 3.0599-9.5648 4.6645-14.675 3.7637-3.3476-.59006-6.4934-2.2374-8.9218-4.6159-2.4284-2.3786-4.1354-5.4744-4.9019-8.7861-.76649-3.3117-.59644-6.828.43612-10.067 1.0326-3.2386 2.9197-6.1938 5.3876-8.5314 2.3569-2.2325 5.2469-3.9071 8.3703-4.7924 3.1233-.8853 6.4753-.97473 9.6297-.20763 3.5564.86486 6.8615 2.8437 9.167 5.6863 2.3056 2.8426 3.5673 6.551 3.2987 10.201-.26865 3.6502-2.11 7.1911-5.0494 9.372-1.4697 1.0904-3.1936 1.8404-4.9974 2.1496-1.8037.30919-3.6846.17495-5.4189-.40907-3.2799-1.1045-5.9483-3.8783-6.9248-7.1986-.97655-3.3203-.23485-7.097 1.9248-9.8014" />
      <path data-start="135" data-duration="50" d="m574 513.36c5.0762 8.2614 6.56 18.648 4 28-1.1199 4.0914-2.9963 8.0047-5.713 11.262-2.7167 3.2578-6.2949 5.8401-10.337 7.1255-4.0425 1.2853-8.5471 1.2244-12.454-.42726-3.9071-1.6517-7.1488-4.9383-8.4955-8.9607-.94114-2.8111-.94599-5.9389.0564-8.7287s3.0182-5.2162 5.6133-6.6492 5.7515-1.8439 8.6085-1.0529c2.857.79097 5.3719 2.7915 6.7218 5.4307.87316 1.7072 1.2615 3.659 1.1083 5.5704s-.84748 3.7764-1.9814 5.3227-2.7041 2.769-4.481 3.4897c-1.7769.72063-3.7552.93692-5.6459.61727" />
      <path data-start="135" data-duration="50" d="m562 491.36c6.7802 10.523 17.792 18.231 30 21 6.6586 1.5103 13.791 1.5634 20.169-.87307 3.1891-1.2182 6.1564-3.0525 8.577-5.4598s4.2844-5.3938 5.2538-8.6672c1.4624-4.938.8044-10.437-1.6415-14.969-2.4459-4.5321-6.6231-8.0703-11.441-9.8907-4.8175-1.8204-10.232-1.9396-15.174-.49068s-9.3971 4.4355-12.744 8.3501c-2.2134 2.5892-3.9724 5.6243-4.734 8.9444-.76153 3.3201-.46827 6.9385 1.1652 9.9276.81671 1.4946 1.9587 2.8166 3.3483 3.8012 1.3896.98468 3.0276 1.6267 4.7221 1.7989 1.6944.17226 3.4414-.13162 4.9562-.91019 1.5148-.77858 2.7877-2.0351 3.5422-3.562.84833-1.7166 1.0196-3.7568.46942-5.5908-.55021-1.834-1.8163-3.443-3.4694-4.4092" />
      <path data-start="135" data-duration="50" d="m584 549.36c1.2344 13.599 6.1164 26.85 14 38 5.5705 7.8782 12.908 14.891 22.025 18.052 4.5582 1.5802 9.5003 2.1485 14.259 1.3554 4.7587-.79308 9.3183-2.9823 12.716-6.4071 3.4114-3.4384 5.5755-8.067 6.129-12.879.55355-4.8118-.48926-9.7785-2.841-14.013-2.3518-4.2343-5.9898-7.7263-10.269-9.9958-4.2789-2.2695-9.1802-3.3213-14.019-3.1127-3.7093.15993-7.3999 1.0566-10.707 2.7439-3.3072 1.6874-6.2217 4.1747-8.2929 7.2561-2.8673 4.2657-4.0328 9.6633-3.0814 14.714.95148 5.051 4.0332 9.6842 8.3782 12.43 4.345 2.7457 9.8984 3.5352 14.808 2.0139 4.9095-1.5213 9.0692-5.3536 10.895-10.158.62865-1.654.99132-3.4172.9769-5.1865-.0144-1.7693-.41237-3.5445-1.234-5.1116-.82164-1.5671-2.0743-2.9188-3.6188-3.7821-1.5445-.86334-3.3808-1.2224-5.1241-.91982-1.6412.28485-3.1744 1.1566-4.2584 2.4213-1.0841 1.2648-1.7111 2.9132-1.7416 4.5787" />
      <path data-start="135" data-duration="50" d="m582 574.36c-2.6097 12.003-10.955 22.625-22 28-2.5352 1.2339-5.2134 2.2076-7.9941 2.6742-2.7806.46658-5.6704.41492-8.381-.36139-2.7106-.77632-5.234-2.3-7.0248-4.4778s-2.8086-5.0232-2.6002-7.835c.24651-3.3257 2.1535-6.3548 4.6062-8.6142s5.4321-3.853 8.3938-5.3858c3.4068-1.7631 6.9331-3.5079 10.747-3.9146 1.9072-.20334 3.8677-.0584 5.6777.57611 1.81.63455 3.4631 1.7757 4.5749 3.3385 1.2158 1.709 1.7394 3.896 1.4294 5.9703-.31005 2.0743-1.4503 4.0126-3.1127 5.2914s-3.8284 1.8837-5.9128 1.6513c-2.0844-.23239-4.064-1.2995-5.4039-2.913" />
      <path data-start="135" data-duration="50" d="m615 342.36c-3.7887-10.087-3.8817-21.516-.25768-31.663s10.936-18.932 20.258-24.337c8.6816-5.0337 19.189-7.1118 29-5 6.8202 1.4681 13.213 4.9419 18.071 9.9491 4.8579 5.0072 8.1472 11.538 9.1618 18.441 1.0146 6.9023-.27052 14.141-3.7016 20.215-3.43 6.08-9 10.94-15.53 13.4-5.9303 2.2371-12.592 2.4805-18.672.68952-6.08-1.79-11.55-5.6-15.33-10.69-3.7208-4.9999-5.8105-11.309-5.2437-17.515.28339-3.1033 1.2225-6.1531 2.7984-8.8414 1.576-2.6883 3.7923-5.0084 6.4453-6.6432 4.4207-2.724 10.009-3.4318 15-2 3.0314.8696 5.8666 2.5178 7.9616 4.875s3.4146 5.4385 3.4591 8.5918c.0445 3.1534-1.2402 6.3445-3.6011 8.4354-1.1804 1.0455-2.6117 1.8108-4.1435 2.1847-1.5318.37396-3.1619.35303-4.6761-.0871-2.5784-.74937-4.7597-2.7541-5.7236-5.2602-.96387-2.5061-.68811-5.4558.72356-7.7398" />
      <path data-start="135" data-duration="50" d="m404 202.36c14.883-17.321 21.326-41.577 17-64-.95094-4.9288-2.4183-9.8245-5.0489-14.1-2.6306-4.2752-6.5177-7.9086-11.263-9.5446-2.3728-.81803-4.9325-1.1235-7.4199-.78837s-4.8971 1.3204-6.8465 2.9013-3.4233 3.7625-4.0695 6.1878c-.64622 2.4252-.44398 5.0838.64806 7.3436 1.1957 2.4743 3.4616 4.4164 6.1004 5.1834 2.6389.76692 5.609.33492 7.8996-1.1834 2.2668-1.5025 3.8219-4.0581 4.04-6.7688.21817-2.7107-.9324-5.5126-3.04-7.2312-2.075-1.692-5.0111-2.2651-7.5701-1.4777-2.559.78738-4.665 2.9119-5.4299 5.4777" />
     </g>
</svg>