<svg  viewBox="0 0 373 320" xmlns="http://www.w3.org/2000/svg" version="1.1" width="373" height="320">
    <g id="logo" transform="matrix(1.25,0,0,-1.25,0,412)">
    <g id="layer3" transform="translate(.2007,168.0039)">
      <path d="m 0,0 c 0,0 -0.527,-27.234 0.028,-30.916 0.555,-3.682 6.243,-7.252 15.521,-11.119 18.557,-7.733 102.75,-42.5 115.75,-48.235 13,-5.734 20.631,-5.099 31,-0.488 10.369,4.612 87.25,39.25 117.5,52.252 12.577,5.406 17.613,9.292 17.918,12.485 0.431,4.486 -0.099,29.449 -0.099,29.449 L 0,0 z" style="fill:#9d1f08;fill-opacity:1;fill-rule:nonzero;stroke:none" />
    </g>
    <g id="layer3top" transform="translate(125.5,221)">
      <path d="m 0,0 c -30.625,-11.728 -87.5,-33.5 -110,-42.125 -22.5,-8.625 -18.307,-15.174 0.25,-22.906 18.557,-7.733 102.75,-42.5 115.75,-48.235 13,-5.734 20.631,-5.099 31,-0.488 10.369,4.611 87.25,39.25 117.5,52.252 30.25,13.002 16.871,17.214 -1,24.127 C 135.629,-30.463 70.273,-4.88 44.5,4.75 29.5,10.354 30.625,11.728 0,0" style="fill:#d03017;fill-opacity:1;fill-rule:nonzero;stroke:none" />
    </g>
    <g id="layer2" transform="translate(.2007,217.0034)">
      <path d="m 0,0 c 0,0 -0.527,-27.234 0.028,-30.916 0.555,-3.681 6.243,-7.251 15.521,-11.119 18.557,-7.732 102.75,-42.5 115.75,-48.234 13,-5.734 20.631,-5.1 31,-0.488 10.369,4.611 87.25,39.25 117.5,52.252 12.577,5.406 17.613,9.292 17.918,12.484 0.431,4.486 -0.099,29.449 -0.099,29.449 L 0,0 z" style="fill:#9d1f08;fill-opacity:1;fill-rule:nonzero;stroke:none" />
    </g>
    <g id="layer2top" transform="translate(125.5,270)">
      <path d="m 0,0 c -30.625,-11.728 -87.5,-33.5 -110,-42.125 -22.5,-8.625 -18.307,-15.173 0.25,-22.906 18.557,-7.733 102.75,-42.5 115.75,-48.235 13,-5.734 20.631,-5.099 31,-0.488 10.369,4.611 87.25,39.25 117.5,52.252 30.25,13.002 16.871,17.214 -1,24.127 C 135.629,-30.463 70.273,-4.88 44.5,4.75 29.5,10.354 30.625,11.728 0,0" style="fill:#d03017;fill-opacity:1;fill-rule:nonzero;stroke:none" />
    </g>
    <g id="layer1" transform="translate(.2007,267.0034)">
      <path d="m 0,0 c 0,0 -0.527,-27.234 0.028,-30.916 0.555,-3.682 6.243,-7.252 15.521,-11.119 18.557,-7.733 102.75,-42.5 115.75,-48.234 13,-5.734 20.631,-5.1 31,-0.488 10.369,4.611 87.25,39.25 117.5,52.252 12.577,5.405 17.613,9.292 17.918,12.484 0.431,4.486 -0.099,29.449 -0.099,29.449 L 0,0 z" style="fill:#9d1f08;fill-opacity:1;fill-rule:nonzero;stroke:none" />
    </g>
    <g id="layer1top" transform="translate(125.5,320)">
      <path d="m 0,0 c -30.625,-11.728 -87.5,-33.5 -110,-42.125 -22.5,-8.625 -18.307,-15.173 0.25,-22.906 18.557,-7.733 102.75,-42.5 115.75,-48.235 13,-5.734 20.631,-5.099 31,-0.488 10.369,4.611 87.25,39.25 117.5,52.252 30.25,13.002 16.871,17.214 -1,24.127 C 135.629,-30.463 70.273,-4.88 44.5,4.75 29.5,10.354 30.625,11.728 0,0" style="fill:#d03017;fill-opacity:1;fill-rule:nonzero;stroke:none" />
    </g>
    <g id="circle" transform="translate(125,268.5)">
      <path d="m 0,0 c 0,-7.87 -16.565,-14.25 -37,-14.25 -20.435,0 -37,6.38 -37,14.25 0,7.87 16.565,14.25 37,14.25 C -16.565,14.25 0,7.87 0,0" style="fill:#ffffff;fill-opacity:1;fill-rule:nonzero;stroke:none" />
    </g>
    <g id="triangle" transform="translate(106.75,242.75)">
      <path d="M 0,0 47.75,-19.75 69.5,11.5 0,0 z" style="fill:#ffffff;fill-opacity:1;fill-rule:nonzero;stroke:none" />
    </g>
    <g id="star" transform="translate(139.25,300.5)">
      <path d="M 0,0 -22.25,-8.25 7.5,-10.5 17,-26.75 l 6,14.5 25.5,2.5 -20,7.5 5.75,13 -19.75,-6.5 -21,8 L 0,0 z" style="fill:#ffffff;fill-opacity:1;fill-rule:nonzero;stroke:none" />
    </g>
    <g id="square-shadow" transform="translate(218.1787,253.9922)">
      <path d="m 0,0 41.321,16.258 -41.25,16" style="fill:#751200;fill-opacity:1;fill-rule:nonzero;stroke:none" />
    </g>
    <g id="square" transform="translate(218.25,286.25)">
      <path d="m 0,0 -44.5,-17.75 40,-16.25 4.429,1.742" style="fill:#9d1f08;fill-opacity:1;fill-rule:nonzero;stroke:none" />
    </g>
  </g>
</svg>
