<svg xmlns="http://www.w3.org/2000/svg" xmlns:xlink="http://www.w3.org/1999/xlink" viewBox="0 0 536 116">
  <defs>
    <style>
      .cls-1 {
        clip-path: url(#clip-SWE_TM-logo-on-dark);
      }

      .cls-2 {
        fill: #fff;
      }

      .cls-3 {
        fill: #85ea2d;
      }

      .cls-4 {
        fill: #173647;
      }
    </style>
    <clipPath id="clip-SWE_TM-logo-on-dark">
      <rect width="536" height="116"/>
    </clipPath>
  </defs>
  <g id="SWE_TM-logo-on-dark" class="cls-1">
    <g id="SWE_In-Product">
      <path id="Path_3002" data-name="Path 3002" class="cls-2" d="M528.911,70.857h-.7V67.176h-1.26v-.6h3.219v.6h-1.26Z"/>
      <path id="Path_3003" data-name="Path 3003" class="cls-2" d="M532.979,70.857l-1.242-3.576h-.023q.049.8.05,1.494v2.082h-.636V66.574h.987l1.19,3.408h.017l1.225-3.408h.99v4.283h-.674V68.74q0-.319.016-.832t.028-.621h-.023l-1.286,3.57Z"/>
      <path id="Path_3004" data-name="Path 3004" class="cls-3" d="M50.027,97.669A47.642,47.642,0,1,1,97.67,50.027,47.642,47.642,0,0,1,50.027,97.669Z"/>
      <path id="Path_3005" data-name="Path 3005" class="cls-3" d="M50.027,4.769A45.258,45.258,0,1,1,4.769,50.027,45.258,45.258,0,0,1,50.027,4.769m0-4.769a50.027,50.027,0,1,0,50.027,50.027A50.027,50.027,0,0,0,50.027,0Z"/>
      <path id="Path_3006" data-name="Path 3006" class="cls-4" d="M31.5,33.854c-.154,1.712.058,3.482-.057,5.213a42.665,42.665,0,0,1-.693,5.156,9.532,9.532,0,0,1-4.1,5.829c4.078,2.654,4.539,6.771,4.809,10.946.135,2.25.077,4.52.308,6.752.173,1.731.846,2.174,2.636,2.231.731.02,1.48,0,2.327,0V75.33c-5.29.9-9.657-.6-10.734-5.079a30.76,30.76,0,0,1-.654-5c-.116-1.789.076-3.578-.058-5.367-.385-4.906-1.02-6.56-5.713-6.791v-6.1a9.189,9.189,0,0,1,1.019-.173c2.577-.135,3.674-.924,4.232-3.463a29.573,29.573,0,0,0,.481-4.329,81.809,81.809,0,0,1,.6-8.406c.674-3.982,3.136-5.906,7.234-6.137,1.154-.057,2.327,0,3.655,0v5.464c-.558.038-1.039.115-1.539.115C31.925,29.949,31.751,31.084,31.5,33.854Zm6.407,12.658H37.83a3.515,3.515,0,1,0-.347,7.021h.231a3.461,3.461,0,0,0,3.655-3.251V50.09a3.523,3.523,0,0,0-3.461-3.578Zm12.061,0a3.373,3.373,0,0,0-3.482,3.251,1.79,1.79,0,0,0,.02.327,3.3,3.3,0,0,0,3.578,3.443,3.264,3.264,0,0,0,3.444-3.558,3.309,3.309,0,0,0-3.559-3.463Zm12.351,0a3.592,3.592,0,0,0-3.655,3.482A3.529,3.529,0,0,0,62.2,53.533h.039c1.769.309,3.559-1.4,3.674-3.462a3.571,3.571,0,0,0-3.593-3.559Zm16.948.288c-2.232-.1-3.348-.846-3.9-2.962a21.523,21.523,0,0,1-.635-4.136c-.154-2.578-.135-5.175-.308-7.753-.4-6.117-4.828-8.252-11.254-7.195v5.31c1.019,0,1.808,0,2.6.019,1.366.019,2.4.539,2.539,2.059.136,1.385.136,2.789.27,4.193.269,2.79.423,5.618.9,8.369A8.715,8.715,0,0,0,73.4,50.052c-3.4,2.289-4.4,5.559-4.578,9.234-.1,2.52-.154,5.059-.289,7.6-.115,2.308-.923,3.058-3.251,3.116-.653.019-1.288.077-2.019.115v5.445c1.366,0,2.616.077,3.866,0,3.886-.231,6.233-2.117,7-5.887A48.9,48.9,0,0,0,74.7,63.4c.135-1.923.116-3.866.309-5.771.288-2.982,1.654-4.213,4.635-4.4a4.037,4.037,0,0,0,.828-.192v-6.1c-.5-.058-.844-.115-1.209-.135Z"/>
      <path id="Path_3007" data-name="Path 3007" class="cls-2" d="M151.972,58.122a11.231,11.231,0,0,1-4.383,9.425q-4.385,3.381-11.9,3.381-8.14,0-12.523-2.1V63.7a32.95,32.95,0,0,0,6.137,1.879,32.279,32.279,0,0,0,6.574.689q5.323,0,8.015-2.02a6.629,6.629,0,0,0,2.693-5.62,7.216,7.216,0,0,0-.955-3.9,8.868,8.868,0,0,0-3.194-2.8,44.614,44.614,0,0,0-6.809-2.911q-6.388-2.286-9.127-5.417a11.959,11.959,0,0,1-2.739-8.171A10.164,10.164,0,0,1,127.739,27q3.976-3.131,10.52-3.131a31,31,0,0,1,12.555,2.5L149.154,31a28.377,28.377,0,0,0-11.02-2.38,10.665,10.665,0,0,0-6.607,1.816,5.985,5.985,0,0,0-2.379,5.041,7.733,7.733,0,0,0,.876,3.9,8.259,8.259,0,0,0,2.959,2.786,36.732,36.732,0,0,0,6.371,2.8q7.2,2.568,9.91,5.509a10.843,10.843,0,0,1,2.708,7.647Z"/>
      <path id="Path_3008" data-name="Path 3008" class="cls-2" d="M184.988,70.3,178.7,50.17q-.6-1.848-2.223-8.391h-.25q-1.254,5.479-2.192,8.453L167.549,70.3h-6.012l-9.361-34.316h5.448q3.318,12.932,5.056,19.694a79.655,79.655,0,0,1,1.988,9.111h.251q.343-1.784,1.111-4.618t1.331-4.493l6.293-19.694h5.635l6.137,19.694a66.551,66.551,0,0,1,2.38,9.049h.25a33.338,33.338,0,0,1,.673-3.476q.547-2.347,6.528-25.267h5.385L191.156,70.3Z"/>
      <path id="Path_3009" data-name="Path 3009" class="cls-2" d="M224.815,70.3l-1.033-4.885h-.251a14.446,14.446,0,0,1-5.119,4.368,15.6,15.6,0,0,1-6.372,1.143q-5.1,0-8-2.63t-2.9-7.484q0-10.394,16.625-10.894l5.824-.189V47.6q0-4.04-1.738-5.964T216.3,39.713a22.644,22.644,0,0,0-9.706,2.63L205,38.366a24.492,24.492,0,0,1,5.558-2.16,24.094,24.094,0,0,1,6.058-.782q6.137,0,9.1,2.723t2.959,8.736V70.3Zm-11.741-3.663a10.548,10.548,0,0,0,7.624-2.662,9.846,9.846,0,0,0,2.771-7.452v-3.1l-5.2.219q-6.2.219-8.939,1.925a5.81,5.81,0,0,0-2.739,5.307,5.357,5.357,0,0,0,1.706,4.29,7.082,7.082,0,0,0,4.777,1.475Z"/>
      <path id="Path_3010" data-name="Path 3010" class="cls-2" d="M264.3,35.986v3.288l-6.356.751a11.175,11.175,0,0,1,2.254,6.858,10.144,10.144,0,0,1-3.444,8.046q-3.444,3.006-9.455,3.006a15.655,15.655,0,0,1-2.881-.251Q241.1,59.439,241.1,62.1a2.243,2.243,0,0,0,1.158,2.082,8.459,8.459,0,0,0,3.976.673h6.074q5.572,0,8.563,2.348a8.159,8.159,0,0,1,2.99,6.825,9.742,9.742,0,0,1-4.571,8.688q-4.57,2.991-13.337,2.99-6.732,0-10.379-2.5a8.088,8.088,0,0,1-3.648-7.076,7.943,7.943,0,0,1,2-5.416,10.209,10.209,0,0,1,5.635-3.1,5.435,5.435,0,0,1-2.207-1.847,4.887,4.887,0,0,1-.892-2.912,5.524,5.524,0,0,1,1-3.287,10.517,10.517,0,0,1,3.162-2.724,9.266,9.266,0,0,1-4.336-3.726,10.949,10.949,0,0,1-1.675-6.011q0-5.635,3.381-8.689t9.581-3.053a17.449,17.449,0,0,1,4.853.626ZM236.932,76.063a4.658,4.658,0,0,0,2.349,4.226,12.969,12.969,0,0,0,6.731,1.44q6.543,0,9.691-1.956a5.992,5.992,0,0,0,3.146-5.307q0-2.788-1.722-3.867t-6.481-1.08h-6.231a8.207,8.207,0,0,0-5.51,1.69,6.044,6.044,0,0,0-1.973,4.854Zm2.818-29.086a6.985,6.985,0,0,0,2.036,5.447,8.121,8.121,0,0,0,5.667,1.847q7.607,0,7.607-7.388,0-7.734-7.7-7.735a7.628,7.628,0,0,0-5.635,1.973q-1.974,1.979-1.975,5.856Z"/>
      <path id="Path_3011" data-name="Path 3011" class="cls-2" d="M298.835,35.986v3.288l-6.356.751a11.166,11.166,0,0,1,2.255,6.858,10.147,10.147,0,0,1-3.444,8.046q-3.444,3.006-9.456,3.006a15.644,15.644,0,0,1-2.88-.251q-3.32,1.755-3.319,4.415a2.242,2.242,0,0,0,1.159,2.082,8.456,8.456,0,0,0,3.976.673h6.074q5.573,0,8.563,2.348a8.159,8.159,0,0,1,2.99,6.825,9.742,9.742,0,0,1-4.571,8.688q-4.572,2.991-13.338,2.99-6.732,0-10.379-2.5a8.087,8.087,0,0,1-3.647-7.076,7.942,7.942,0,0,1,2-5.416,10.212,10.212,0,0,1,5.636-3.1,5.429,5.429,0,0,1-2.207-1.847A4.887,4.887,0,0,1,271,62.85a5.524,5.524,0,0,1,1-3.287,10.517,10.517,0,0,1,3.162-2.724,9.275,9.275,0,0,1-4.336-3.726,10.949,10.949,0,0,1-1.675-6.011q0-5.635,3.382-8.689t9.58-3.053a17.439,17.439,0,0,1,4.853.626ZM271.471,76.063a4.659,4.659,0,0,0,2.348,4.226,12.973,12.973,0,0,0,6.732,1.44q6.543,0,9.69-1.956a5.991,5.991,0,0,0,3.147-5.307q0-2.788-1.723-3.867t-6.481-1.08h-6.23a8.2,8.2,0,0,0-5.51,1.69A6.044,6.044,0,0,0,271.471,76.063Zm2.818-29.086a6.985,6.985,0,0,0,2.035,5.447,8.123,8.123,0,0,0,5.667,1.847q7.608,0,7.608-7.388,0-7.734-7.7-7.735a7.628,7.628,0,0,0-5.635,1.973q-1.976,1.979-1.975,5.856Z"/>
      <path id="Path_3012" data-name="Path 3012" class="cls-2" d="M316.477,70.928q-7.606,0-12.006-4.634t-4.4-12.868q0-8.3,4.086-13.181A13.567,13.567,0,0,1,315.13,35.36a12.94,12.94,0,0,1,10.208,4.24q3.762,4.246,3.762,11.2v3.288H305.457q.156,6.042,3.052,9.173t8.156,3.131a27.629,27.629,0,0,0,10.958-2.317v4.634a27.541,27.541,0,0,1-5.212,1.706,29.262,29.262,0,0,1-5.934.513Zm-1.408-31.215a8.488,8.488,0,0,0-6.591,2.692,12.41,12.41,0,0,0-2.9,7.451h17.94q0-4.914-2.192-7.529a7.712,7.712,0,0,0-6.257-2.614Z"/>
      <path id="Path_3013" data-name="Path 3013" class="cls-2" d="M350.6,35.36a20.372,20.372,0,0,1,4.1.376l-.72,4.822a17.72,17.72,0,0,0-3.757-.47A9.144,9.144,0,0,0,343.1,43.47a12.326,12.326,0,0,0-2.959,8.422V70.3h-5.2V35.986h4.289l.6,6.357h.251a15.069,15.069,0,0,1,4.6-5.166A10.366,10.366,0,0,1,350.6,35.36Z"/>
      <path id="Path_3014" data-name="Path 3014" class="cls-2" d="M394.454,70.3H368.937V24.527h25.517v4.729H374.26V44h18.973v4.7H374.26V65.543h20.194Z"/>
      <path id="Path_3015" data-name="Path 3015" class="cls-2" d="M423.683,65.7H423.4q-3.6,5.231-10.77,5.229-6.734,0-10.473-4.6t-3.742-13.087q0-8.484,3.757-13.181t10.458-4.7q6.981,0,10.707,5.073h.407l-.219-2.474-.125-2.41V21.585h5.2V70.3h-4.227Zm-10.394.877q5.322,0,7.718-2.9t2.395-9.346v-1.1q0-7.294-2.427-10.41t-7.749-3.115a7.953,7.953,0,0,0-7,3.553Q403.8,46.821,403.8,53.3q0,6.574,2.41,9.925a8.166,8.166,0,0,0,7.079,3.351Z"/>
      <path id="Path_3016" data-name="Path 3016" class="cls-2" d="M435.918,26.688a3.449,3.449,0,0,1,.877-2.614,3.243,3.243,0,0,1,4.351.016,3.385,3.385,0,0,1,.909,2.6,3.442,3.442,0,0,1-.909,2.615,3.182,3.182,0,0,1-4.351,0,3.515,3.515,0,0,1-.877-2.617ZM441.554,70.3h-5.2V35.986h5.2Z"/>
      <path id="Path_3017" data-name="Path 3017" class="cls-2" d="M461.26,66.639a17.07,17.07,0,0,0,2.661-.2,17.339,17.339,0,0,0,2.035-.423v3.976a9.508,9.508,0,0,1-2.489.674,18.741,18.741,0,0,1-2.959.266q-9.955,0-9.956-10.489V40.025h-4.915v-2.5l4.915-2.161,2.191-7.326h3.006V35.99h9.956v4.039h-9.956v20.2a6.943,6.943,0,0,0,1.472,4.759,5.117,5.117,0,0,0,4.039,1.651Z"/>
      <path id="Path_3018" data-name="Path 3018" class="cls-2" d="M499.014,53.113q0,8.391-4.227,13.1t-11.68,4.712a15.478,15.478,0,0,1-8.171-2.16,14.264,14.264,0,0,1-5.51-6.2,21.6,21.6,0,0,1-1.941-9.455q0-8.389,4.2-13.072t11.647-4.681q7.2,0,11.443,4.79T499.014,53.113Zm-26.144,0q0,6.575,2.63,10.019t7.732,3.444q5.1,0,7.75-3.429t2.645-10.034q0-6.543-2.645-9.941t-7.812-3.4q-5.1,0-7.7,3.35T472.87,53.113Z"/>
      <path id="Path_3019" data-name="Path 3019" class="cls-2" d="M520.726,35.36a20.376,20.376,0,0,1,4.1.376l-.721,4.822a17.712,17.712,0,0,0-3.757-.47,9.145,9.145,0,0,0-7.123,3.382,12.335,12.335,0,0,0-2.958,8.422V70.3h-5.2V35.986h4.289l.6,6.357h.251a15.078,15.078,0,0,1,4.6-5.166A10.368,10.368,0,0,1,520.726,35.36Z"/>
    </g>
  </g>
</svg>
